<?xml version="1.0" encoding="utf-8"?>
<!-- Generator: Adobe Illustrator 24.1.3, SVG Export Plug-In . SVG Version: 6.00 Build 0)  -->
<svg version="1.1" id="Layer_1" xmlns="http://www.w3.org/2000/svg" xmlns:xlink="http://www.w3.org/1999/xlink" x="0px" y="0px"
	 viewBox="0 0 476 483" style="enable-background:new 0 0 476 483;" xml:space="preserve">
<style type="text/css">
	.st0{fill-rule:evenodd;clip-rule:evenodd;fill:#935DF8;}
	.st1{fill:none;stroke:#040570;stroke-width:3;}
	.st2{enable-background:new    ;}
	.st3{fill:#FFFFFF;}
	.st4{fill:#040570;}
	.st5{fill-rule:evenodd;clip-rule:evenodd;fill:#2713a3;}
</style>
<desc>Created with Sketch.</desc>
<g id="Sketch-6">
	<g id="Hyper-casual_1_" transform="translate(-320.000000, -4884.000000)">
		<g id="Group-3" transform="translate(320.000000, 4884.000000)">
			<g id="Group-16-Copy" transform="translate(69.000000, 0.000000)">
				<ellipse id="Oval" class="st0" cx="160.2" cy="305.7" rx="159.3" ry="159.6"/>
				<circle id="Oval-Copy-6" class="st1" cx="168.5" cy="73.5" r="72"/>
				<g class="st2">
					<path class="st3" d="M101.2,283v-0.2H70v-13.5h47.9v12.3C106.6,293,96.3,311.8,95.6,334H79C79.8,310.5,92,292.3,101.2,283z"/>
					<path class="st3" d="M128.3,329.3c-4.7-4.2-7.2-10.2-7.2-17.7h15c0.4,6.9,3.8,11.7,11.9,11.7c6.5,0,10.1-3.6,10.1-9
						c0-5.7-4-8.5-11.1-8.5h-3.9v-11.1h3.5c6,0,10-2.6,10-7.6c0-4.4-3.1-7.4-8.5-7.4c-6.9,0-9.9,4.3-10.3,9.9h-14.8
						c0.3-12.9,9.3-21.8,25.3-21.8c14.3,0,24,6.8,24,18.2c0,6.6-4.1,10.7-9.8,12.9v0.2c7.1,2.2,11.7,7.2,11.7,15.9
						c0,13.9-12,20.3-25.6,20.3C139.6,335.5,132.8,333.3,128.3,329.3z"/>
					<path class="st3" d="M178.2,286.8c0-11.5,7.3-19,17.3-19c10.2,0,17.3,7.5,17.3,19c0,11.4-7.3,18.9-17.3,18.9
						C185.6,305.7,178.2,298.3,178.2,286.8z M201.2,286.8c0-6.3-1.7-11-5.7-11s-5.7,4.6-5.7,11c0,6.2,1.7,10.7,5.7,10.7
						S201.2,293.2,201.2,286.8z M230.4,269.2h8.9l-35,64.8h-8.8L230.4,269.2z M221.9,316.6c0-11.4,7.4-18.9,17.3-18.9
						c10.3,0,17.4,7.4,17.4,18.9c0,11.5-7.3,19-17.4,19C229.2,335.6,221.9,328.1,221.9,316.6z M244.9,316.6c0-6.2-1.8-10.9-5.7-10.9
						c-4.1,0-5.7,4.5-5.7,10.9s1.6,10.8,5.7,10.8C243.2,327.4,244.9,322.9,244.9,316.6z"/>
				</g>
				<g class="st2">
					<path class="st4" d="M135.6,71.5c-1.8-1.5-2.8-3.7-2.8-6.1h5c0.2,2.2,1.4,4,4.5,4c2.5,0,3.9-1.3,3.9-3.4s-1.5-3.2-4.2-3.2h-1.4
						v-3.7h1.3c2.4,0,3.8-1,3.8-2.9c0-1.7-1.3-2.9-3.3-2.9c-2.6,0-3.8,1.7-3.9,3.5h-4.9c0.1-4.2,3.3-7.5,8.9-7.5
						c4.9,0,8.4,2.4,8.4,6.5c0,2.4-1.5,3.8-3.9,4.6v0.1c2.9,0.8,4.6,2.7,4.6,5.8c0,4.9-4.2,7.2-9,7.2
						C139.5,73.6,137.3,72.8,135.6,71.5z"/>
					<path class="st4" d="M165.1,67.8h-10.8v-4.7l10.9-13.4h5.1v14.2h3.4v3.9h-3.4V73h-5.1V67.8z M161.1,63.9h4v-5.6
						c0-1.4,0.2-3.5,0.2-3.5h-0.1c0,0-1.3,2-2.3,3.2l-2.5,3.1c-0.9,1.2-2.7,2.9-2.7,2.9v0.1C157.8,64.1,159.8,63.9,161.1,63.9z"/>
					<path class="st4" d="M174.7,56.2c0-4.1,2.6-6.7,6.1-6.7c3.6,0,6,2.6,6,6.7c0,4.1-2.5,6.7-6,6.7S174.7,60.3,174.7,56.2z
						 M182.9,56.2c0-2.3-0.7-4-2.2-4s-2.1,1.7-2.1,4c0,2.3,0.6,4,2.1,4S182.9,58.5,182.9,56.2z M193.5,49.9h3L184,73h-3L193.5,49.9z
						 M190.7,66.8c0-4.1,2.6-6.7,6.1-6.7c3.6,0,6.1,2.7,6.1,6.7c0,4.1-2.5,6.8-6.1,6.8C193.3,73.6,190.7,70.9,190.7,66.8z
						 M198.9,66.8c0-2.3-0.7-4-2.1-4c-1.5,0-2.2,1.7-2.2,4s0.6,4,2.2,4C198.3,70.8,198.9,69.1,198.9,66.8z"/>
				</g>
				<g class="st2">
					<path class="st4" d="M139.4,82.4l3.6,9.7l3.7-9.7h2.1V94h-1.5v-9.6h0l-3.6,9.6h-1.3l-3.6-9.6h0V94h-1.5V82.4H139.4z"/>
					<path class="st4" d="M158.6,94c-0.2,0.1-0.6,0.2-1,0.2c-0.4,0-0.6-0.1-0.9-0.3c-0.2-0.2-0.3-0.5-0.3-1c-0.4,0.5-0.8,0.8-1.3,1
						c-0.5,0.2-1,0.3-1.6,0.3c-0.4,0-0.7,0-1.1-0.1c-0.3-0.1-0.6-0.2-0.9-0.4s-0.4-0.4-0.6-0.7c-0.1-0.3-0.2-0.7-0.2-1.1
						c0-0.5,0.1-0.9,0.2-1.2c0.2-0.3,0.4-0.5,0.6-0.7c0.3-0.2,0.6-0.3,0.9-0.4c0.3-0.1,0.7-0.2,1-0.2c0.4-0.1,0.7-0.1,1.1-0.2
						s0.6-0.1,0.9-0.2s0.5-0.2,0.6-0.3c0.2-0.1,0.2-0.3,0.2-0.6c0-0.3-0.1-0.5-0.2-0.7s-0.3-0.3-0.4-0.4c-0.2-0.1-0.4-0.2-0.6-0.2
						c-0.2,0-0.4,0-0.7,0c-0.6,0-1.1,0.1-1.5,0.3s-0.6,0.6-0.6,1.3H151c0-0.5,0.1-1,0.3-1.3c0.2-0.4,0.5-0.6,0.8-0.9
						c0.3-0.2,0.7-0.4,1.1-0.5c0.4-0.1,0.9-0.1,1.3-0.1c0.4,0,0.8,0,1.1,0.1c0.4,0.1,0.7,0.2,1,0.3s0.5,0.4,0.7,0.7s0.3,0.7,0.3,1.2
						V92c0,0.3,0,0.6,0.1,0.7c0,0.2,0.2,0.2,0.4,0.2c0.1,0,0.3,0,0.4-0.1V94z M156.3,89.7c-0.2,0.1-0.4,0.2-0.7,0.3
						c-0.3,0.1-0.6,0.1-0.9,0.1c-0.3,0-0.6,0.1-0.9,0.1c-0.3,0-0.6,0.1-0.8,0.2c-0.2,0.1-0.5,0.3-0.6,0.5c-0.2,0.2-0.2,0.5-0.2,0.8
						c0,0.2,0,0.4,0.1,0.6s0.2,0.3,0.4,0.4c0.1,0.1,0.3,0.2,0.5,0.2c0.2,0,0.4,0.1,0.6,0.1c0.5,0,0.8-0.1,1.2-0.2
						c0.3-0.1,0.6-0.3,0.8-0.5c0.2-0.2,0.4-0.4,0.5-0.6c0.1-0.2,0.1-0.4,0.1-0.6V89.7z"/>
					<path class="st4" d="M163.4,85.6v1.2h-1.7V92c0,0.2,0,0.3,0,0.4c0,0.1,0.1,0.2,0.2,0.2c0.1,0.1,0.2,0.1,0.3,0.1
						c0.1,0,0.3,0,0.5,0h0.6V94h-1.1c-0.4,0-0.7,0-0.9-0.1c-0.3,0-0.5-0.1-0.6-0.3c-0.2-0.1-0.3-0.3-0.3-0.6
						c-0.1-0.2-0.1-0.6-0.1-0.9v-5.3H159v-1.2h1.4v-2.5h1.4v2.5H163.4z"/>
					<path class="st4" d="M170,87.1c-0.3-0.3-0.8-0.4-1.4-0.4c-0.5,0-0.9,0.1-1.2,0.3s-0.6,0.4-0.8,0.7c-0.2,0.3-0.3,0.7-0.4,1
						c-0.1,0.4-0.1,0.8-0.1,1.2c0,0.4,0,0.8,0.1,1.1s0.2,0.7,0.4,1c0.2,0.3,0.4,0.5,0.8,0.7c0.3,0.2,0.7,0.3,1.1,0.3
						c0.7,0,1.2-0.2,1.6-0.5c0.4-0.4,0.6-0.9,0.7-1.5h1.4c-0.2,1-0.5,1.8-1.2,2.4s-1.5,0.8-2.5,0.8c-0.6,0-1.2-0.1-1.7-0.3
						c-0.5-0.2-0.9-0.5-1.2-0.9c-0.3-0.4-0.6-0.8-0.7-1.4c-0.2-0.5-0.3-1.1-0.3-1.7c0-0.6,0.1-1.2,0.2-1.8c0.2-0.5,0.4-1,0.7-1.4
						c0.3-0.4,0.7-0.7,1.2-1c0.5-0.2,1.1-0.3,1.7-0.3c0.5,0,0.9,0.1,1.3,0.2c0.4,0.1,0.8,0.3,1.1,0.5c0.3,0.2,0.6,0.5,0.8,0.9
						c0.2,0.4,0.3,0.8,0.4,1.3h-1.4C170.5,87.8,170.3,87.4,170,87.1z"/>
					<path class="st4" d="M175,82.4v4.4h0c0.1-0.3,0.3-0.5,0.5-0.7c0.2-0.2,0.4-0.3,0.7-0.4c0.2-0.1,0.5-0.2,0.8-0.3
						c0.3-0.1,0.5-0.1,0.8-0.1c0.6,0,1,0.1,1.4,0.2s0.7,0.4,0.9,0.6c0.2,0.3,0.4,0.6,0.5,1c0.1,0.4,0.1,0.8,0.1,1.2V94h-1.4v-5.7
						c0-0.5-0.2-0.9-0.5-1.2c-0.3-0.3-0.7-0.5-1.2-0.5c-0.4,0-0.8,0.1-1.1,0.2c-0.3,0.1-0.6,0.3-0.8,0.6s-0.4,0.5-0.5,0.8
						c-0.1,0.3-0.2,0.7-0.2,1V94h-1.4V82.4H175z"/>
					<path class="st4" d="M187.1,88.8v1.3h-4.7v-1.3H187.1z"/>
					<path class="st4" d="M191.6,87.5c0.1,0,0.1,0,0.2,0h0.3c0.3,0,0.6,0,0.8-0.1c0.3-0.1,0.5-0.2,0.7-0.4c0.2-0.2,0.4-0.4,0.5-0.6
						c0.1-0.2,0.2-0.5,0.2-0.8c0-0.6-0.2-1.1-0.6-1.4c-0.4-0.3-0.9-0.5-1.5-0.5c-0.4,0-0.7,0.1-1,0.2s-0.5,0.3-0.7,0.5
						c-0.2,0.2-0.3,0.5-0.4,0.8c-0.1,0.3-0.1,0.6-0.1,1h-1.4c0-0.6,0.1-1.1,0.3-1.5c0.2-0.5,0.4-0.8,0.7-1.2
						c0.3-0.3,0.7-0.6,1.1-0.8s0.9-0.3,1.5-0.3c0.5,0,1,0.1,1.4,0.2c0.4,0.1,0.8,0.3,1.1,0.6c0.3,0.2,0.6,0.6,0.7,1s0.3,0.8,0.3,1.4
						c0,0.5-0.2,1-0.5,1.4c-0.3,0.4-0.7,0.7-1.1,0.9v0c0.7,0.2,1.2,0.5,1.6,1c0.3,0.5,0.5,1.1,0.5,1.8c0,0.6-0.1,1.1-0.3,1.5
						c-0.2,0.4-0.5,0.8-0.9,1.1c-0.4,0.3-0.8,0.5-1.3,0.7c-0.5,0.1-1,0.2-1.5,0.2c-0.6,0-1.1-0.1-1.6-0.2s-0.9-0.4-1.2-0.7
						c-0.3-0.3-0.6-0.7-0.8-1.2c-0.2-0.5-0.3-1-0.3-1.6h1.4c0,0.7,0.2,1.4,0.6,1.8c0.4,0.5,1,0.7,1.8,0.7c0.3,0,0.7-0.1,1-0.2
						c0.3-0.1,0.6-0.2,0.8-0.4c0.2-0.2,0.4-0.4,0.5-0.7s0.2-0.6,0.2-0.9c0-0.4-0.1-0.7-0.2-0.9c-0.1-0.3-0.3-0.5-0.5-0.7
						c-0.2-0.2-0.5-0.3-0.8-0.4c-0.3-0.1-0.6-0.1-1-0.1c-0.3,0-0.6,0-0.8,0v-1.2C191.5,87.5,191.6,87.5,191.6,87.5z"/>
				</g>
				<g class="st2">
					<path class="st3" d="M96.6,343.1h3.4v5.7h5.6v-5.7h3.4v14.7h-3.4v-6.2H100v6.2h-3.4V343.1z"/>
					<path class="st3" d="M111.4,361.3v-2.4h0.2c0,0,0.9,0,1,0c1,0,1.4-0.4,1.5-1.1c0-0.4-0.2-1.2-0.6-2.1l-3.3-8.4h3.3l1.3,4
						c0.5,1.4,0.9,3.7,0.9,3.7h0c0,0,0.5-2.3,0.9-3.7l1.3-4h3.1l-3.8,10.8c-0.9,2.4-1.8,3.3-3.8,3.3
						C113.4,361.3,111.5,361.3,111.4,361.3z"/>
					<path class="st3" d="M122.2,347.3h3v1.5h0.1c0.7-1.2,1.8-1.8,3.2-1.8c2.8,0,4.5,2.3,4.5,5.6c0,3.4-1.8,5.6-4.6,5.6
						c-1.4,0-2.5-0.6-3.1-1.6h0c0,0.4,0.1,1.2,0.1,2.3v2.5h-3.1V347.3z M129.9,352.6c0-1.9-0.7-3.2-2.3-3.2c-1.6,0-2.4,1.4-2.4,3.2
						c0,1.8,0.8,3.1,2.4,3.1C129.1,355.7,129.9,354.5,129.9,352.6z"/>
					<path class="st3" d="M134.1,352.6c0-3.2,2.2-5.6,5.4-5.6c1.5,0,2.7,0.5,3.6,1.3c1.2,1.1,1.7,2.9,1.7,5h-7.7
						c0.2,1.6,1,2.5,2.6,2.5c1,0,1.6-0.4,1.9-1h3c-0.5,1.9-2.3,3.3-5,3.3C136.2,358.1,134.1,355.7,134.1,352.6z M137.2,351.5h4.5
						c-0.1-1.5-0.9-2.4-2.2-2.4C138.1,349.2,137.4,350.1,137.2,351.5z"/>
					<path class="st3" d="M149.4,349.1L149.4,349.1c0.7-1.5,1.7-2.1,3-2.1c0.3,0,0.5,0,0.7,0.1v2.7H153c-0.2,0-0.4-0.1-0.7-0.1
						c-1.7,0-2.8,1-2.8,3.1v4.9h-3.1v-10.5h3V349.1z"/>
					<path class="st3" d="M154.3,351.2h5.6v2.7h-5.6V351.2z"/>
					<path class="st3" d="M161.2,352.6c0-3.2,2.2-5.6,5.5-5.6c2.8,0,4.6,1.6,4.9,3.9h-3c-0.2-1-0.9-1.6-1.9-1.6
						c-1.6,0-2.4,1.3-2.4,3.3c0,1.9,0.8,3.2,2.4,3.2c1.1,0,1.8-0.7,2-1.9h3c-0.1,2.4-2,4.3-4.9,4.3
						C163.4,358.1,161.2,355.7,161.2,352.6z"/>
					<path class="st3" d="M179.5,356.5L179.5,356.5c-0.7,1-1.6,1.6-3.2,1.6c-2.1,0-3.6-1.1-3.6-3.2c0-2.3,1.8-2.9,4.1-3.2
						c1.9-0.3,2.7-0.6,2.7-1.3c0-0.8-0.5-1.3-1.6-1.3c-1.2,0-1.8,0.6-1.8,1.4h-2.9c0.1-1.8,1.5-3.5,4.7-3.5c1.3,0,2.3,0.2,3,0.6
						c1.1,0.6,1.6,1.7,1.6,3.1v5.4c0,0.8,0.1,1.3,0.4,1.5v0.2h-3C179.7,357.6,179.6,357.1,179.5,356.5z M179.6,354v-1.4
						c-0.5,0.3-1.1,0.4-1.8,0.6c-1.4,0.3-2,0.6-2,1.5s0.7,1.2,1.5,1.2C178.7,356,179.6,355.2,179.6,354z"/>
					<path class="st3" d="M183.9,354.6h2.9c0.2,1,0.9,1.5,2.1,1.5c1.1,0,1.7-0.5,1.7-1.2c0-1-1.2-1.1-2.7-1.3
						c-1.9-0.4-3.8-0.8-3.8-3.3c0-2.2,2-3.3,4.4-3.3c2.9,0,4.4,1.3,4.7,3.1h-2.9c-0.2-0.8-0.8-1.1-1.8-1.1c-1,0-1.6,0.4-1.6,1.1
						c0,0.8,1.1,0.9,2.6,1.2c1.9,0.3,4,0.8,4,3.5c0,2.3-2,3.5-4.8,3.5C185.9,358.1,184.1,356.7,183.9,354.6z"/>
					<path class="st3" d="M202.1,357.8v-1.5h-0.1c-0.8,1.2-1.7,1.8-3.2,1.8c-2.4,0-3.7-1.5-3.7-3.9v-7h3.1v6.4
						c0,1.2,0.6,1.8,1.7,1.8c1.2,0,2-1,2-2.3v-6h3.1v10.5H202.1z"/>
					<path class="st3" d="M213.5,356.5L213.5,356.5c-0.7,1-1.6,1.6-3.2,1.6c-2.1,0-3.6-1.1-3.6-3.2c0-2.3,1.8-2.9,4.1-3.2
						c1.9-0.3,2.7-0.6,2.7-1.3c0-0.8-0.5-1.3-1.6-1.3c-1.2,0-1.8,0.6-1.8,1.4h-2.9c0.1-1.8,1.5-3.5,4.7-3.5c1.3,0,2.3,0.2,3,0.6
						c1.1,0.6,1.6,1.7,1.6,3.1v5.4c0,0.8,0.1,1.3,0.4,1.5v0.2h-3C213.7,357.6,213.6,357.1,213.5,356.5z M213.6,354v-1.4
						c-0.5,0.3-1.1,0.4-1.8,0.6c-1.4,0.3-2,0.6-2,1.5s0.7,1.2,1.5,1.2C212.7,356,213.6,355.2,213.6,354z"/>
					<path class="st3" d="M218.7,343.1h3.1v14.7h-3.1V343.1z"/>
				</g>
			</g>
			<circle id="Oval-Copy-16" class="st5" cx="415.5" cy="422.5" r="60.5"/>
			<g class="st2">
				<path class="st3" d="M392.1,416c1.7-1.8,4-3.3,5.8-4.6c1.2-0.8,1.8-1.6,1.8-2.9c0-1.5-0.9-2.5-2.5-2.5c-0.9,0-1.6,0.3-2.1,0.8
					c-0.6,0.6-0.8,1.5-0.8,2.6h-3.9c0-1.8,0.4-3.1,1.2-4.3c1-1.5,3-2.5,5.7-2.5c4.2,0,6.5,2.5,6.5,5.7c0,2.1-0.9,3.4-2.2,4.5
					c-1.9,1.7-4.6,2.8-6,4.6v0.1h8.2v3.4h-13.7C390.2,418.8,390.9,417.3,392.1,416z"/>
				<path class="st3" d="M405.5,415.9c0-2.1,1.3-3.8,3.6-4.5v-0.1c-1.9-0.7-2.8-2-2.8-3.7c0-3,2.6-5,6.7-5c4.1,0,6.6,1.9,6.6,4.9
					c0,1.6-0.9,3-2.8,3.6v0.1c2.4,0.7,3.6,2.4,3.6,4.5c0,3.6-3.1,5.6-7.4,5.6S405.5,419.4,405.5,415.9z M416.2,415.6
					c0-1.7-1.2-2.8-3.2-2.8s-3.3,1.1-3.3,2.8c0,1.7,1.2,2.7,3.3,2.7C414.9,418.4,416.2,417.3,416.2,415.6z M415.7,407.8
					c0-1.4-1-2.3-2.7-2.3c-1.7,0-2.7,0.9-2.7,2.3c0,1.4,1,2.3,2.7,2.3C414.7,410.1,415.7,409.2,415.7,407.8z"/>
				<path class="st3" d="M421.8,407.9c0-3.2,2-5.2,4.7-5.2c2.8,0,4.7,2,4.7,5.2c0,3.2-2,5.2-4.7,5.2S421.8,411.1,421.8,407.9z
					 M428.2,407.9c0-1.8-0.5-3.1-1.7-3.1s-1.7,1.3-1.7,3.1c0,1.8,0.5,3.1,1.7,3.1S428.2,409.7,428.2,407.9z M436.5,403.1h2.4
					l-9.8,17.9h-2.4L436.5,403.1z M434.3,416.2c0-3.2,2-5.2,4.7-5.2c2.8,0,4.7,2.1,4.7,5.2c0,3.2-2,5.3-4.7,5.3
					C436.3,421.5,434.3,419.4,434.3,416.2z M440.7,416.2c0-1.8-0.6-3.1-1.7-3.1c-1.2,0-1.7,1.3-1.7,3.1c0,1.8,0.5,3.1,1.7,3.1
					C440.2,419.3,440.7,418,440.7,416.2z"/>
			</g>
			<g class="st2">
				<path class="st3" d="M400.5,428.4c-0.1-0.2-0.3-0.4-0.4-0.5c-0.2-0.1-0.4-0.3-0.6-0.3s-0.5-0.1-0.7-0.1c-0.4,0-0.8,0.1-1.1,0.3
					s-0.6,0.4-0.8,0.7c-0.2,0.3-0.3,0.6-0.4,1c-0.1,0.4-0.1,0.8-0.1,1.1c0,0.4,0,0.7,0.1,1.1c0.1,0.4,0.2,0.7,0.4,1
					c0.2,0.3,0.4,0.5,0.8,0.7s0.7,0.3,1.1,0.3c0.6,0,1.1-0.2,1.4-0.6c0.3-0.4,0.5-0.9,0.6-1.5h1.9c-0.1,0.6-0.2,1.1-0.4,1.5
					c-0.2,0.5-0.5,0.8-0.8,1.2s-0.7,0.6-1.2,0.7s-1,0.3-1.5,0.3c-0.7,0-1.3-0.1-1.9-0.4s-1-0.6-1.4-1c-0.4-0.4-0.7-0.9-0.9-1.5
					c-0.2-0.6-0.3-1.2-0.3-1.8c0-0.7,0.1-1.3,0.3-1.9c0.2-0.6,0.5-1.1,0.9-1.5c0.4-0.4,0.8-0.8,1.4-1c0.5-0.2,1.2-0.4,1.9-0.4
					c0.5,0,1,0.1,1.4,0.2c0.4,0.1,0.8,0.4,1.2,0.6c0.3,0.3,0.6,0.6,0.9,1c0.2,0.4,0.4,0.9,0.4,1.4h-1.9
					C400.7,428.8,400.6,428.6,400.5,428.4z"/>
				<path class="st3" d="M403.8,430.5c0-0.4,0.1-0.8,0.3-1c0.2-0.3,0.4-0.5,0.7-0.7s0.6-0.3,1-0.4c0.4-0.1,0.7-0.1,1.1-0.1
					c0.3,0,0.7,0,1,0.1s0.6,0.1,0.9,0.3c0.3,0.1,0.5,0.3,0.7,0.6c0.2,0.2,0.3,0.6,0.3,1v3.4c0,0.3,0,0.6,0.1,0.8
					c0,0.3,0.1,0.5,0.2,0.6h-1.8c0-0.1-0.1-0.2-0.1-0.3c0-0.1,0-0.2,0-0.3c-0.3,0.3-0.6,0.5-1,0.6c-0.4,0.1-0.8,0.2-1.2,0.2
					c-0.3,0-0.6,0-0.9-0.1c-0.3-0.1-0.5-0.2-0.7-0.4c-0.2-0.2-0.4-0.4-0.5-0.6c-0.1-0.2-0.2-0.5-0.2-0.9c0-0.4,0.1-0.7,0.2-0.9
					c0.1-0.2,0.3-0.4,0.5-0.6c0.2-0.1,0.4-0.2,0.7-0.3s0.5-0.1,0.8-0.2c0.3,0,0.5-0.1,0.8-0.1c0.3,0,0.5-0.1,0.7-0.1
					c0.2-0.1,0.4-0.1,0.5-0.2c0.1-0.1,0.2-0.2,0.2-0.4c0-0.2,0-0.3-0.1-0.5c-0.1-0.1-0.1-0.2-0.3-0.3c-0.1-0.1-0.2-0.1-0.4-0.1
					c-0.1,0-0.3,0-0.4,0c-0.4,0-0.6,0.1-0.8,0.2c-0.2,0.2-0.3,0.4-0.4,0.8H403.8z M407.9,431.8c-0.1,0.1-0.2,0.1-0.3,0.2
					s-0.2,0.1-0.4,0.1c-0.1,0-0.3,0-0.4,0.1c-0.1,0-0.3,0-0.4,0.1c-0.1,0-0.3,0.1-0.4,0.1s-0.2,0.1-0.3,0.2s-0.2,0.2-0.2,0.3
					c-0.1,0.1-0.1,0.2-0.1,0.4c0,0.2,0,0.3,0.1,0.4c0.1,0.1,0.1,0.2,0.2,0.3c0.1,0.1,0.2,0.1,0.4,0.1c0.1,0,0.3,0,0.4,0
					c0.4,0,0.6-0.1,0.8-0.2c0.2-0.1,0.3-0.3,0.4-0.4c0.1-0.2,0.1-0.3,0.2-0.5c0-0.2,0-0.3,0-0.4V431.8z"/>
				<path class="st3" d="M412.6,433.4c0.1,0.1,0.2,0.3,0.3,0.3c0.1,0.1,0.3,0.2,0.4,0.2c0.2,0,0.3,0.1,0.5,0.1c0.1,0,0.3,0,0.4,0
					c0.1,0,0.3-0.1,0.4-0.1c0.1-0.1,0.2-0.1,0.3-0.3c0.1-0.1,0.1-0.2,0.1-0.4c0-0.3-0.2-0.5-0.5-0.6c-0.4-0.1-0.9-0.3-1.5-0.4
					c-0.3-0.1-0.5-0.1-0.8-0.2c-0.2-0.1-0.5-0.2-0.7-0.3c-0.2-0.1-0.3-0.3-0.5-0.5c-0.1-0.2-0.2-0.4-0.2-0.7c0-0.4,0.1-0.8,0.2-1
					c0.2-0.3,0.4-0.5,0.6-0.6c0.3-0.2,0.6-0.3,0.9-0.3c0.3-0.1,0.7-0.1,1-0.1s0.7,0,1,0.1s0.6,0.2,0.9,0.3c0.3,0.2,0.5,0.4,0.6,0.6
					c0.2,0.3,0.3,0.6,0.3,1h-1.7c0-0.3-0.2-0.6-0.4-0.7c-0.2-0.1-0.5-0.2-0.8-0.2c-0.1,0-0.2,0-0.3,0c-0.1,0-0.2,0-0.3,0.1
					c-0.1,0-0.2,0.1-0.2,0.2s-0.1,0.2-0.1,0.3c0,0.2,0.1,0.3,0.2,0.4c0.1,0.1,0.3,0.2,0.5,0.2c0.2,0.1,0.4,0.1,0.6,0.2
					c0.2,0,0.5,0.1,0.7,0.2c0.3,0.1,0.5,0.1,0.8,0.2c0.2,0.1,0.5,0.2,0.7,0.3s0.3,0.3,0.5,0.5c0.1,0.2,0.2,0.5,0.2,0.8
					c0,0.4-0.1,0.8-0.3,1.1c-0.2,0.3-0.4,0.5-0.7,0.7c-0.3,0.2-0.6,0.3-1,0.4c-0.4,0.1-0.7,0.1-1.1,0.1c-0.4,0-0.7,0-1.1-0.1
					c-0.4-0.1-0.7-0.2-1-0.4c-0.3-0.2-0.5-0.4-0.7-0.7c-0.2-0.3-0.3-0.7-0.3-1.1h1.7C412.5,433.1,412.5,433.2,412.6,433.4z"/>
				<path class="st3" d="M422.3,435v-0.9h0c-0.2,0.4-0.5,0.7-0.9,0.8s-0.7,0.3-1.1,0.3c-0.5,0-0.9-0.1-1.2-0.2s-0.5-0.3-0.7-0.5
					c-0.2-0.2-0.3-0.5-0.4-0.8c-0.1-0.3-0.1-0.7-0.1-1.1v-4h1.8v3.7c0,0.5,0.1,0.9,0.3,1.2s0.5,0.4,0.9,0.4c0.5,0,0.8-0.1,1.1-0.4
					c0.2-0.3,0.3-0.8,0.3-1.4v-3.4h1.8v6.5H422.3z"/>
				<path class="st3" d="M425.3,430.5c0-0.4,0.1-0.8,0.3-1s0.4-0.5,0.7-0.7c0.3-0.2,0.6-0.3,1-0.4c0.4-0.1,0.7-0.1,1.1-0.1
					c0.3,0,0.7,0,1,0.1s0.6,0.1,0.9,0.3c0.3,0.1,0.5,0.3,0.7,0.6c0.2,0.2,0.3,0.6,0.3,1v3.4c0,0.3,0,0.6,0,0.8
					c0,0.3,0.1,0.5,0.2,0.6h-1.8c0-0.1-0.1-0.2-0.1-0.3s0-0.2,0-0.3c-0.3,0.3-0.6,0.5-1,0.6c-0.4,0.1-0.8,0.2-1.2,0.2
					c-0.3,0-0.6,0-0.9-0.1c-0.3-0.1-0.5-0.2-0.7-0.4c-0.2-0.2-0.4-0.4-0.5-0.6c-0.1-0.2-0.2-0.5-0.2-0.9c0-0.4,0.1-0.7,0.2-0.9
					s0.3-0.4,0.5-0.6c0.2-0.1,0.4-0.2,0.7-0.3s0.5-0.1,0.8-0.2s0.5-0.1,0.8-0.1c0.3,0,0.5-0.1,0.7-0.1c0.2-0.1,0.4-0.1,0.5-0.2
					c0.1-0.1,0.2-0.2,0.2-0.4c0-0.2,0-0.3-0.1-0.5c-0.1-0.1-0.1-0.2-0.3-0.3c-0.1-0.1-0.2-0.1-0.4-0.1c-0.1,0-0.3,0-0.4,0
					c-0.4,0-0.6,0.1-0.8,0.2s-0.3,0.4-0.4,0.8H425.3z M429.4,431.8c-0.1,0.1-0.2,0.1-0.3,0.2s-0.2,0.1-0.4,0.1s-0.3,0-0.4,0.1
					c-0.1,0-0.3,0-0.4,0.1c-0.1,0-0.3,0.1-0.4,0.1c-0.1,0-0.2,0.1-0.3,0.2s-0.2,0.2-0.2,0.3c-0.1,0.1-0.1,0.2-0.1,0.4
					c0,0.2,0,0.3,0.1,0.4c0.1,0.1,0.1,0.2,0.2,0.3c0.1,0.1,0.2,0.1,0.4,0.1c0.1,0,0.3,0,0.4,0c0.4,0,0.6-0.1,0.8-0.2
					c0.2-0.1,0.3-0.3,0.4-0.4s0.1-0.3,0.2-0.5c0-0.2,0-0.3,0-0.4V431.8z"/>
				<path class="st3" d="M434.4,426v9h-1.8v-9H434.4z"/>
			</g>
			<circle id="Oval-Copy-5" class="st5" cx="84.5" cy="110.5" r="84.5"/>
			<g class="st2">
				<path class="st3" d="M51.6,109.5c-1.8-1.5-2.8-3.7-2.8-6.1h5c0.2,2.2,1.4,4,4.5,4c2.5,0,3.9-1.3,3.9-3.4s-1.5-3.2-4.2-3.2h-1.4
					v-3.7h1.3c2.4,0,3.8-1,3.8-2.9c0-1.7-1.3-2.9-3.3-2.9c-2.6,0-3.8,1.7-3.9,3.5h-4.9c0.1-4.2,3.3-7.5,8.9-7.5
					c4.9,0,8.4,2.4,8.4,6.5c0,2.4-1.5,3.8-3.9,4.6v0.1c2.9,0.8,4.6,2.7,4.6,5.8c0,4.9-4.2,7.2-9,7.2
					C55.5,111.6,53.3,110.8,51.6,109.5z"/>
				<path class="st3" d="M70.3,105.5h5.1c0.3,1.1,1.4,2.2,3.4,2.2c1.6,0,2.7-0.6,3.5-1.9c0.7-1.1,1.1-2.7,1.2-4.8h-0.1
					c-1.3,1.7-3.1,2.7-5.5,2.7c-4.6,0-8.3-3.2-8.3-8.1c0-4.8,3.9-8.2,9.1-8.2c2.7,0,4.9,0.8,6.5,2.2c2.2,2,3.2,5.2,3.2,9.7
					c0,4-0.7,7.4-2.7,9.5c-1.6,1.8-3.8,2.8-6.9,2.8C74,111.6,70.8,108.9,70.3,105.5z M83.2,95.6c0-2.5-1.8-4.2-4.3-4.2
					c-2.6,0-4.3,1.8-4.3,4.2s1.7,4.2,4.2,4.2C81.4,99.8,83.2,98.1,83.2,95.6z"/>
				<path class="st3" d="M90.7,94.2c0-4.1,2.6-6.7,6.1-6.7c3.6,0,6,2.6,6,6.7c0,4.1-2.5,6.7-6,6.7S90.7,98.3,90.7,94.2z M98.9,94.2
					c0-2.3-0.7-4-2.2-4s-2.1,1.7-2.1,4c0,2.3,0.6,4,2.1,4S98.9,96.5,98.9,94.2z M109.5,87.9h3L100,111h-3L109.5,87.9z M106.7,104.8
					c0-4.1,2.6-6.7,6.1-6.7c3.6,0,6.1,2.7,6.1,6.7c0,4.1-2.5,6.8-6.1,6.8C109.3,111.6,106.7,108.9,106.7,104.8z M114.9,104.8
					c0-2.3-0.7-4-2.1-4c-1.5,0-2.2,1.7-2.2,4s0.6,4,2.2,4C114.3,108.8,114.9,107.1,114.9,104.8z"/>
			</g>
			<g class="st2">
				<path class="st3" d="M57.4,121.4l2.7,8h0l2.6-8h3.6V133h-2.4v-8.2h0L61,133h-2l-2.8-8.1h0v8.1h-2.4v-11.6H57.4z"/>
				<path class="st3" d="M68.3,123.3v-1.9h2.3v1.9H68.3z M70.6,124.6v8.4h-2.3v-8.4H70.6z"/>
				<path class="st3" d="M78.4,131.9c-0.3,0.5-0.6,0.8-1.1,1c-0.4,0.2-0.9,0.3-1.5,0.3c-0.6,0-1.2-0.1-1.7-0.4
					c-0.5-0.2-0.9-0.6-1.2-1c-0.3-0.4-0.5-0.9-0.7-1.4c-0.2-0.5-0.2-1.1-0.2-1.7c0-0.6,0.1-1.1,0.2-1.6c0.2-0.5,0.4-1,0.7-1.4
					c0.3-0.4,0.7-0.7,1.2-1c0.5-0.2,1-0.4,1.6-0.4c0.5,0,1,0.1,1.4,0.3c0.4,0.2,0.8,0.5,1.1,0.9h0v-4.2h2.3V133h-2.2L78.4,131.9
					L78.4,131.9z M78.3,127.8c-0.1-0.3-0.2-0.6-0.3-0.8c-0.2-0.2-0.4-0.4-0.6-0.6s-0.6-0.2-0.9-0.2s-0.7,0.1-1,0.2
					c-0.3,0.2-0.5,0.4-0.6,0.6c-0.2,0.2-0.3,0.5-0.3,0.9c-0.1,0.3-0.1,0.7-0.1,1c0,0.3,0,0.6,0.1,1s0.2,0.6,0.4,0.9
					c0.2,0.3,0.4,0.5,0.6,0.6c0.3,0.2,0.6,0.2,0.9,0.2c0.4,0,0.7-0.1,0.9-0.2c0.3-0.2,0.5-0.4,0.6-0.6s0.3-0.5,0.3-0.9
					c0.1-0.3,0.1-0.7,0.1-1S78.4,128.1,78.3,127.8z"/>
				<path class="st3" d="M86.4,126.1c-0.4,0-0.7,0.1-0.9,0.3c-0.2,0.2-0.5,0.4-0.6,0.6s-0.3,0.6-0.3,0.9s-0.1,0.6-0.1,0.9
					c0,0.3,0,0.6,0.1,0.9s0.2,0.6,0.3,0.9s0.3,0.5,0.6,0.6c0.2,0.2,0.6,0.2,0.9,0.2c0.6,0,1-0.2,1.3-0.5c0.3-0.3,0.5-0.7,0.6-1.2
					h2.2c-0.2,1.1-0.6,2-1.3,2.5s-1.6,0.9-2.7,0.9c-0.6,0-1.2-0.1-1.7-0.3c-0.5-0.2-1-0.5-1.3-0.9c-0.4-0.4-0.7-0.8-0.9-1.4
					s-0.3-1.1-0.3-1.7c0-0.6,0.1-1.2,0.3-1.8c0.2-0.6,0.5-1,0.8-1.4s0.8-0.7,1.3-0.9c0.5-0.2,1.1-0.3,1.8-0.3c0.5,0,1,0.1,1.4,0.2
					c0.5,0.1,0.9,0.3,1.2,0.6s0.7,0.6,0.9,1c0.2,0.4,0.4,0.9,0.4,1.4h-2.3C87.9,126.6,87.3,126.1,86.4,126.1z"/>
				<path class="st3" d="M91.7,127c0.2-0.5,0.5-1,0.9-1.4c0.4-0.4,0.8-0.7,1.4-0.9c0.5-0.2,1.1-0.3,1.8-0.3s1.3,0.1,1.8,0.3
					c0.5,0.2,1,0.5,1.4,0.9c0.4,0.4,0.7,0.8,0.9,1.4s0.3,1.2,0.3,1.8c0,0.7-0.1,1.3-0.3,1.8s-0.5,1-0.9,1.4
					c-0.4,0.4-0.8,0.7-1.4,0.9c-0.5,0.2-1.1,0.3-1.8,0.3s-1.3-0.1-1.8-0.3c-0.5-0.2-1-0.5-1.4-0.9c-0.4-0.4-0.7-0.8-0.9-1.4
					s-0.3-1.1-0.3-1.8C91.4,128.2,91.5,127.5,91.7,127z M93.8,129.8c0.1,0.3,0.2,0.6,0.3,0.9s0.4,0.5,0.6,0.6c0.3,0.2,0.6,0.2,1,0.2
					s0.7-0.1,1-0.2s0.5-0.4,0.6-0.6s0.3-0.5,0.3-0.9c0.1-0.3,0.1-0.6,0.1-1s0-0.7-0.1-1c-0.1-0.3-0.2-0.6-0.3-0.9
					c-0.2-0.2-0.4-0.5-0.6-0.6s-0.6-0.2-1-0.2s-0.7,0.1-1,0.2c-0.3,0.2-0.5,0.4-0.6,0.6c-0.2,0.2-0.3,0.5-0.3,0.9s-0.1,0.7-0.1,1
					S93.7,129.5,93.8,129.8z"/>
				<path class="st3" d="M103.7,124.6v1.6h0c0.1-0.3,0.3-0.5,0.4-0.7c0.2-0.2,0.4-0.4,0.6-0.6c0.2-0.2,0.5-0.3,0.8-0.4
					c0.3-0.1,0.6-0.1,0.8-0.1c0.2,0,0.3,0,0.5,0.1v2.1c-0.1,0-0.2,0-0.4-0.1s-0.3,0-0.4,0c-0.4,0-0.8,0.1-1.1,0.2s-0.5,0.3-0.7,0.6
					c-0.2,0.2-0.3,0.5-0.4,0.9c-0.1,0.3-0.1,0.7-0.1,1.1v3.8h-2.3v-8.4H103.7z"/>
				<path class="st3" d="M110.3,131c0.3,0.3,0.8,0.5,1.5,0.5c0.5,0,0.9-0.1,1.2-0.3c0.3-0.2,0.5-0.5,0.6-0.7h2
					c-0.3,1-0.8,1.7-1.5,2.2c-0.7,0.4-1.5,0.6-2.4,0.6c-0.7,0-1.3-0.1-1.8-0.3c-0.5-0.2-1-0.5-1.3-0.9c-0.4-0.4-0.7-0.9-0.9-1.4
					c-0.2-0.5-0.3-1.1-0.3-1.8c0-0.6,0.1-1.2,0.3-1.8c0.2-0.5,0.5-1,0.9-1.4c0.4-0.4,0.8-0.7,1.4-0.9c0.5-0.2,1.1-0.3,1.7-0.3
					c0.7,0,1.3,0.1,1.9,0.4s1,0.6,1.3,1.1c0.3,0.5,0.6,1,0.7,1.6c0.2,0.6,0.2,1.2,0.2,1.9h-6C109.8,130.1,110,130.7,110.3,131z
					 M112.9,126.6c-0.3-0.3-0.7-0.5-1.3-0.5c-0.4,0-0.7,0.1-0.9,0.2c-0.2,0.1-0.4,0.3-0.6,0.5c-0.1,0.2-0.2,0.4-0.3,0.6
					c-0.1,0.2-0.1,0.4-0.1,0.6h3.7C113.4,127.3,113.2,126.9,112.9,126.6z"/>
			</g>
		</g>
	</g>
</g>
<g id="drSw1m.tif">
	
		<image style="overflow:visible;" width="332" height="242" id="Layer_0_1_" xlink:href="CD55F73B041B4509.png"  transform="matrix(0.5 0 0 0.5 541.5 94)">
	</image>
</g>
<g id="MLMJYN.tif">
	
		<image style="overflow:visible;" width="340" height="562" id="Layer_0_2_" xlink:href="CD55F73B041B450B.png"  transform="matrix(0.5 0 0 0.5 -172.5 146.1)">
	</image>
</g>
</svg>
